<?xml version="1.0" encoding="UTF-8"?>
<svg version="1.1" xmlns="http://www.w3.org/2000/svg" width="512" height="512">
<path d="M0 0 C6.65048656 3.83723374 9.90229553 8.60142749 12.5 15.875 C13.5 21.875 13.5 21.875 13.5 38.875 C116.46 38.875 219.42 38.875 325.5 38.875 C325.5 33.265 325.5 27.655 325.5 21.875 C326.3520914 14.29138657 328.00012293 9.29063388 333.5 3.875 C341.13356353 -1.92593108 347.97435756 -3.06888484 357.5 -2.125 C364.24391965 -0.07609798 369.89787207 3.73679447 373.5 9.875 C376.5 17.875 376.5 17.875 376.5 38.875 C392.67 38.875 408.84 38.875 425.5 38.875 C425.5 191.665 425.5 344.455 425.5 501.875 C256.54 501.875 87.58 501.875 -86.5 501.875 C-86.5 349.085 -86.5 196.295 -86.5 38.875 C-70.33 38.875 -54.16 38.875 -37.5 38.875 C-37.5 31.945 -37.5 25.015 -37.5 17.875 C-35.07907837 8.39305694 -30.53967888 3.93833422 -22.3125 -1.0625 C-14.72215298 -3.17784261 -7.23921908 -3.35449614 0 0 Z M-17.171875 16.765625 C-20.42276111 21.10741249 -20.06766997 24.42314721 -19.8125 29.6875 C-19.78994141 30.57115234 -19.76738281 31.45480469 -19.74414062 32.36523438 C-19.68547428 34.5358891 -19.59579979 36.7056669 -19.5 38.875 C-14.55 38.875 -9.6 38.875 -4.5 38.875 C-4.39199053 35.79072954 -4.31268998 32.71024253 -4.25 29.625 C-4.21648437 28.75230469 -4.18296875 27.87960938 -4.1484375 26.98046875 C-4.00952892 21.81141898 -4.00952892 21.81141898 -6.33203125 17.33203125 C-10.38304015 14.6094613 -13.06568246 13.86007355 -17.171875 16.765625 Z M345.5 16.875 C343.39790143 20.02814785 343.2565239 20.73603081 343.3046875 24.32421875 C343.31113281 25.17177734 343.31757813 26.01933594 343.32421875 26.89257812 C343.34097656 27.77365234 343.35773438 28.65472656 343.375 29.5625 C343.38402344 30.45517578 343.39304687 31.34785156 343.40234375 32.26757812 C343.42590085 34.47016666 343.46177156 36.67261725 343.5 38.875 C348.45 38.875 353.4 38.875 358.5 38.875 C358.63530844 35.81101549 358.7342407 32.75302874 358.8125 29.6875 C358.85439453 28.82318359 358.89628906 27.95886719 358.93945312 27.06835938 C359.02599207 22.5510262 358.96601847 20.51427146 356.23046875 16.76171875 C352.27402065 14.02786405 349.4136192 14.3963745 345.5 16.875 Z " fill="#EEF3F6" transform="translate(86.5,6.125)"/>
<path d="M0 0 C6.65048656 3.83723374 9.90229553 8.60142749 12.5 15.875 C13.5 21.875 13.5 21.875 13.5 38.875 C116.46 38.875 219.42 38.875 325.5 38.875 C325.5 33.265 325.5 27.655 325.5 21.875 C326.3520914 14.29138657 328.00012293 9.29063388 333.5 3.875 C341.13356353 -1.92593108 347.97435756 -3.06888484 357.5 -2.125 C364.24391965 -0.07609798 369.89787207 3.73679447 373.5 9.875 C376.5 17.875 376.5 17.875 376.5 38.875 C392.67 38.875 408.84 38.875 425.5 38.875 C425.5 66.265 425.5 93.655 425.5 121.875 C256.54 121.875 87.58 121.875 -86.5 121.875 C-86.5 94.485 -86.5 67.095 -86.5 38.875 C-70.33 38.875 -54.16 38.875 -37.5 38.875 C-37.5 31.945 -37.5 25.015 -37.5 17.875 C-35.07907837 8.39305694 -30.53967888 3.93833422 -22.3125 -1.0625 C-14.72215298 -3.17784261 -7.23921908 -3.35449614 0 0 Z M-17.171875 16.765625 C-20.42276111 21.10741249 -20.06766997 24.42314721 -19.8125 29.6875 C-19.78994141 30.57115234 -19.76738281 31.45480469 -19.74414062 32.36523438 C-19.68547428 34.5358891 -19.59579979 36.7056669 -19.5 38.875 C-14.55 38.875 -9.6 38.875 -4.5 38.875 C-4.39199053 35.79072954 -4.31268998 32.71024253 -4.25 29.625 C-4.21648437 28.75230469 -4.18296875 27.87960938 -4.1484375 26.98046875 C-4.00952892 21.81141898 -4.00952892 21.81141898 -6.33203125 17.33203125 C-10.38304015 14.6094613 -13.06568246 13.86007355 -17.171875 16.765625 Z M345.5 16.875 C343.39790143 20.02814785 343.2565239 20.73603081 343.3046875 24.32421875 C343.31113281 25.17177734 343.31757813 26.01933594 343.32421875 26.89257812 C343.34097656 27.77365234 343.35773438 28.65472656 343.375 29.5625 C343.38402344 30.45517578 343.39304687 31.34785156 343.40234375 32.26757812 C343.42590085 34.47016666 343.46177156 36.67261725 343.5 38.875 C348.45 38.875 353.4 38.875 358.5 38.875 C358.63530844 35.81101549 358.7342407 32.75302874 358.8125 29.6875 C358.85439453 28.82318359 358.89628906 27.95886719 358.93945312 27.06835938 C359.02599207 22.5510262 358.96601847 20.51427146 356.23046875 16.76171875 C352.27402065 14.02786405 349.4136192 14.3963745 345.5 16.875 Z " fill="#2D2829" transform="translate(86.5,6.125)"/>
<path d="M0 0 C20.27795177 16.98858936 32.88821191 43.10799336 36.484375 69.02734375 C36.73770468 73.11901492 36.73864881 77.1933089 36.71142578 81.29174805 C36.71171783 82.46378281 36.71200989 83.63581757 36.71231079 84.84336853 C36.71092837 88.6795111 36.6954186 92.51545428 36.6796875 96.3515625 C36.6759535 99.02627389 36.67300985 101.70097454 36.67111206 104.37568665 C36.66492523 110.67231306 36.64855279 116.96886904 36.62841308 123.2654646 C36.60596638 130.44090574 36.59503872 137.61635045 36.58502221 144.79181802 C36.56418368 159.53702909 36.52906282 174.28218518 36.484375 189.02734375 C21.29691649 189.1213361 6.10947147 189.19158908 -9.07821369 189.23459244 C-16.1322389 189.25510216 -23.18608202 189.28299678 -30.23999023 189.32910156 C-37.06111026 189.37366307 -43.88204199 189.39655356 -50.70329857 189.40685272 C-53.29170882 189.41418225 -55.88011004 189.42849292 -58.4684391 189.45026398 C-92.01668157 189.72094707 -120.44742754 182.14263631 -145.515625 159.02734375 C-146.50949219 158.15529297 -146.50949219 158.15529297 -147.5234375 157.265625 C-164.51468318 141.57835864 -176.42618697 115.51054954 -177.70458984 92.64794922 C-177.78260646 89.12626905 -177.78878606 85.61225435 -177.765625 82.08984375 C-177.77335937 80.91744141 -177.78109375 79.74503906 -177.7890625 78.53710938 C-177.72476977 49.42857775 -165.84656643 24.55109098 -145.828125 3.83984375 C-105.18086567 -36.55002913 -43.12991002 -33.82081453 0 0 Z " fill="#F3608A" transform="translate(475.515625,318.97265625)"/>
<path d="M0 0 C27.06 0 54.12 0 82 0 C82 10.89 82 21.78 82 33 C65.83 33 49.66 33 33 33 C33 38.61 33 44.22 33 50 C180.18 50 327.36 50 479 50 C479 44.39 479 38.78 479 33 C473.72 33 468.44 33 463 33 C463 22.11 463 11.22 463 0 C479.17 0 495.34 0 512 0 C512 27.39 512 54.78 512 83 C343.04 83 174.08 83 0 83 C0 55.61 0 28.22 0 0 Z " fill="#474545" transform="translate(0,45)"/>
<path d="M0 0 C114.51 0 229.02 0 347 0 C347 10.89 347 21.78 347 33 C232.49 33 117.98 33 0 33 C0 22.11 0 11.22 0 0 Z " fill="#464444" transform="translate(99,45)"/>
<path d="M0 0 C0.33 0 0.66 0 1 0 C1 31.68 1 63.36 1 96 C-30.68 96 -62.36 96 -95 96 C-91.13061014 94.06530507 -88.40562173 93.45077422 -84.1875 92.75 C-59.04190021 88.08440865 -35.10965851 72.6942462 -20.1875 52 C-16.78118497 46.8379359 -13.76250927 41.53202999 -11 36 C-10.11441406 34.24236328 -10.11441406 34.24236328 -9.2109375 32.44921875 C-4.17088998 21.97309131 -1.88538584 11.42941977 0 0 Z " fill="#EFF2F6" transform="translate(511,412)"/>
<path d="M0 0 C16.5 0 33 0 50 0 C50 16.5 50 33 50 50 C33.5 50 17 50 0 50 C0 33.5 0 17 0 0 Z " fill="#7FD0ED" transform="translate(165,425)"/>
<path d="M0 0 C16.5 0 33 0 50 0 C50 16.5 50 33 50 50 C33.5 50 17 50 0 50 C0 33.5 0 17 0 0 Z " fill="#7FD0ED" transform="translate(99,425)"/>
<path d="M0 0 C16.5 0 33 0 50 0 C50 16.5 50 33 50 50 C33.5 50 17 50 0 50 C0 33.5 0 17 0 0 Z " fill="#7FD0ED" transform="translate(33,425)"/>
<path d="M0 0 C16.5 0 33 0 50 0 C50 16.5 50 33 50 50 C33.5 50 17 50 0 50 C0 33.5 0 17 0 0 Z " fill="#7FD0ED" transform="translate(231,359)"/>
<path d="M0 0 C16.5 0 33 0 50 0 C50 16.5 50 33 50 50 C33.5 50 17 50 0 50 C0 33.5 0 17 0 0 Z " fill="#7FD0ED" transform="translate(165,359)"/>
<path d="M0 0 C16.5 0 33 0 50 0 C50 16.5 50 33 50 50 C33.5 50 17 50 0 50 C0 33.5 0 17 0 0 Z " fill="#4BB3D6" transform="translate(99,359)"/>
<path d="M0 0 C16.5 0 33 0 50 0 C50 16.5 50 33 50 50 C33.5 50 17 50 0 50 C0 33.5 0 17 0 0 Z " fill="#4BB3D6" transform="translate(33,359)"/>
<path d="M0 0 C16.5 0 33 0 50 0 C50 16.5 50 33 50 50 C33.5 50 17 50 0 50 C0 33.5 0 17 0 0 Z " fill="#4BB3D6" transform="translate(231,293)"/>
<path d="M0 0 C16.5 0 33 0 50 0 C50 16.5 50 33 50 50 C33.5 50 17 50 0 50 C0 33.5 0 17 0 0 Z " fill="#F3628B" transform="translate(165,293)"/>
<path d="M0 0 C16.5 0 33 0 50 0 C50 16.5 50 33 50 50 C33.5 50 17 50 0 50 C0 33.5 0 17 0 0 Z " fill="#F3628B" transform="translate(99,293)"/>
<path d="M0 0 C16.5 0 33 0 50 0 C50 16.5 50 33 50 50 C33.5 50 17 50 0 50 C0 33.5 0 17 0 0 Z " fill="#F3628B" transform="translate(33,293)"/>
<path d="M0 0 C16.5 0 33 0 50 0 C50 16.5 50 33 50 50 C33.5 50 17 50 0 50 C0 33.5 0 17 0 0 Z " fill="#4CB3D6" transform="translate(429,227)"/>
<path d="M0 0 C16.5 0 33 0 50 0 C50 16.5 50 33 50 50 C33.5 50 17 50 0 50 C0 33.5 0 17 0 0 Z " fill="#4CB3D6" transform="translate(363,227)"/>
<path d="M0 0 C16.5 0 33 0 50 0 C50 16.5 50 33 50 50 C33.5 50 17 50 0 50 C0 33.5 0 17 0 0 Z " fill="#4CB3D6" transform="translate(297,227)"/>
<path d="M0 0 C16.5 0 33 0 50 0 C50 16.5 50 33 50 50 C33.5 50 17 50 0 50 C0 33.5 0 17 0 0 Z " fill="#4CB3D6" transform="translate(165,227)"/>
<path d="M0 0 C16.5 0 33 0 50 0 C50 16.5 50 33 50 50 C33.5 50 17 50 0 50 C0 33.5 0 17 0 0 Z " fill="#F3628C" transform="translate(99,227)"/>
<path d="M0 0 C16.5 0 33 0 50 0 C50 16.5 50 33 50 50 C33.5 50 17 50 0 50 C0 33.5 0 17 0 0 Z " fill="#F3628C" transform="translate(33,227)"/>
<path d="M0 0 C16.5 0 33 0 50 0 C50 16.5 50 33 50 50 C33.5 50 17 50 0 50 C0 33.5 0 17 0 0 Z " fill="#4CB3D6" transform="translate(429,161)"/>
<path d="M0 0 C16.5 0 33 0 50 0 C50 16.5 50 33 50 50 C33.5 50 17 50 0 50 C0 33.5 0 17 0 0 Z " fill="#4CB3D6" transform="translate(363,161)"/>
<path d="M0 0 C16.5 0 33 0 50 0 C50 16.17 50 32.34 50 49 C33.5 49 17 49 0 49 C0 32.83 0 16.66 0 0 Z " fill="#4AB2D6" transform="translate(231,227)"/>
<path d="M0 0 C16.5 0 33 0 50 0 C50 16.17 50 32.34 50 49 C33.5 49 17 49 0 49 C0 32.83 0 16.66 0 0 Z " fill="#4AB2D6" transform="translate(297,161)"/>
<path d="M0 0 C16.5 0 33 0 50 0 C50 16.17 50 32.34 50 49 C33.5 49 17 49 0 49 C0 32.83 0 16.66 0 0 Z " fill="#4AB2D6" transform="translate(231,161)"/>
<path d="M0 0 C1.06816445 0.86807601 2.12918085 1.74494783 3.1875 2.625 C3.77917969 3.11226563 4.37085938 3.59953125 4.98046875 4.1015625 C7.54686166 6.51407112 9.74508093 9.29409712 12 12 C-8.79 32.79 -29.58 53.58 -51 75 C-58.875 68.25 -58.875 68.25 -61.73217773 65.38134766 C-62.37231308 64.74113678 -63.01244843 64.1009259 -63.67198181 63.4413147 C-64.33581375 62.77232147 -64.99964569 62.10332825 -65.68359375 61.4140625 C-66.38396255 60.71227875 -67.08433136 60.010495 -67.80592346 59.28744507 C-70.01883027 57.06898864 -72.22821416 54.84706185 -74.4375 52.625 C-75.94703314 51.11044534 -77.45679657 49.59612015 -78.96679688 48.08203125 C-82.64719702 44.39066901 -86.32471957 40.69645931 -90 37 C-88.39464713 33.58940597 -86.59481099 31.38207516 -83.875 28.75 C-83.15054687 28.04359375 -82.42609375 27.3371875 -81.6796875 26.609375 C-81.12539063 26.07828125 -80.57109375 25.5471875 -80 25 C-76.08810726 26.57219198 -73.56199795 29.26110501 -70.71875 32.26171875 C-69.70225094 33.30835857 -68.68531062 34.35457 -67.66796875 35.40039062 C-66.07616896 37.0481425 -64.48859524 38.69947693 -62.90869141 40.35864258 C-61.37723431 41.9624277 -59.8306825 43.55032074 -58.28125 45.13671875 C-57.81134644 45.63870285 -57.34144287 46.14068695 -56.8572998 46.65788269 C-55.38291331 48.212874 -55.38291331 48.212874 -53 50 C-48.90141001 49.80271667 -46.81630695 47.1782887 -44.04785156 44.38842773 C-43.5693425 43.91035675 -43.09083344 43.43228577 -42.5978241 42.93972778 C-41.02154039 41.36135786 -39.45614271 39.77263658 -37.890625 38.18359375 C-36.79840572 37.08577794 -35.70552121 35.9886236 -34.61199951 34.8921051 C-31.73825127 32.00691268 -28.87362664 29.1128243 -26.01080322 26.21679688 C-23.08687331 23.26215704 -20.15441274 20.31601101 -17.22265625 17.36914062 C-11.47338291 11.58771064 -5.73371936 5.79685575 0 0 Z " fill="#FEFDFE" transform="translate(448,370)"/>
<path d="M0 0 C5.61 0 11.22 0 17 0 C17 5.61 17 11.22 17 17 C11.39 17 5.78 17 0 17 C0 11.39 0 5.78 0 0 Z " fill="#504F4F" transform="translate(49,177)"/>
<path d="M0 0 C5.28 0 10.56 0 16 0 C16 5.28 16 10.56 16 16 C10.72 16 5.44 16 0 16 C0 10.72 0 5.44 0 0 Z " fill="#474545" transform="translate(248,442)"/>
<path d="M0 0 C5.28 0 10.56 0 16 0 C16 5.28 16 10.56 16 16 C10.72 16 5.44 16 0 16 C0 10.72 0 5.44 0 0 Z " fill="#474545" transform="translate(182,178)"/>
<path d="M0 0 C5.28 0 10.56 0 16 0 C16 5.28 16 10.56 16 16 C10.72 16 5.44 16 0 16 C0 10.72 0 5.44 0 0 Z " fill="#474545" transform="translate(116,178)"/>
</svg>
