<?xml version="1.0" encoding="UTF-8"?>
<svg version="1.1" xmlns="http://www.w3.org/2000/svg" width="256" height="256">
<path d="M0 0 C3.69213867 0.50508053 5.47215632 1.53065008 7.85546875 4.390625 C9.85546875 8.390625 9.85546875 8.390625 9.85546875 20.390625 C61.33546875 20.390625 112.81546875 20.390625 165.85546875 20.390625 C165.85546875 16.430625 165.85546875 12.470625 165.85546875 8.390625 C169.63074965 2.09849017 169.63074965 2.09849017 173.85546875 0.390625 C178.92038106 -0.30389475 182.71570224 -0.15890528 187.35546875 2.078125 C189.85546875 4.390625 189.85546875 4.390625 191.85546875 9.390625 C191.85546875 13.020625 191.85546875 16.650625 191.85546875 20.390625 C199.77546875 20.390625 207.69546875 20.390625 215.85546875 20.390625 C215.85546875 97.280625 215.85546875 174.170625 215.85546875 253.390625 C131.37546875 253.390625 46.89546875 253.390625 -40.14453125 253.390625 C-40.14453125 176.500625 -40.14453125 99.610625 -40.14453125 20.390625 C-32.22453125 20.390625 -24.30453125 20.390625 -16.14453125 20.390625 C-16.14453125 16.760625 -16.14453125 13.130625 -16.14453125 9.390625 C-14.89453125 6.453125 -14.89453125 6.453125 -13.14453125 4.390625 C-12.57089844 3.69839844 -11.99726563 3.00617187 -11.40625 2.29296875 C-7.80827374 -0.73330835 -4.52464595 -0.15431192 0 0 Z M-4.14453125 9.390625 C-6.35823176 11.17720257 -6.35823176 11.17720257 -6.33984375 13.5546875 C-6.31664062 14.36679688 -6.2934375 15.17890625 -6.26953125 16.015625 C-6.25148437 16.83289063 -6.2334375 17.65015625 -6.21484375 18.4921875 C-6.19164062 19.11867188 -6.1684375 19.74515625 -6.14453125 20.390625 C-3.83453125 20.390625 -1.52453125 20.390625 0.85546875 20.390625 C1.36222462 15.08052205 1.36222462 15.08052205 -0.51953125 10.390625 C-2.11041032 9.21592586 -2.11041032 9.21592586 -4.14453125 9.390625 Z M177.85546875 9.390625 C176.18905869 10.38138 176.18905869 10.38138 174.85546875 12.390625 C174.58201396 15.10908735 174.7205559 17.64739699 174.85546875 20.390625 C177.16546875 20.390625 179.47546875 20.390625 181.85546875 20.390625 C181.85546875 17.420625 181.85546875 14.450625 181.85546875 11.390625 C180.53546875 10.730625 179.21546875 10.070625 177.85546875 9.390625 Z " fill="#E9EFF3" transform="translate(40.14453125,1.609375)"/>
<path d="M0 0 C3.69213867 0.50508053 5.47215632 1.53065008 7.85546875 4.390625 C9.85546875 8.390625 9.85546875 8.390625 9.85546875 20.390625 C61.33546875 20.390625 112.81546875 20.390625 165.85546875 20.390625 C165.85546875 16.430625 165.85546875 12.470625 165.85546875 8.390625 C169.63074965 2.09849017 169.63074965 2.09849017 173.85546875 0.390625 C178.92038106 -0.30389475 182.71570224 -0.15890528 187.35546875 2.078125 C189.85546875 4.390625 189.85546875 4.390625 191.85546875 9.390625 C191.85546875 13.020625 191.85546875 16.650625 191.85546875 20.390625 C199.77546875 20.390625 207.69546875 20.390625 215.85546875 20.390625 C215.85546875 34.250625 215.85546875 48.110625 215.85546875 62.390625 C131.37546875 62.390625 46.89546875 62.390625 -40.14453125 62.390625 C-40.14453125 48.530625 -40.14453125 34.670625 -40.14453125 20.390625 C-32.22453125 20.390625 -24.30453125 20.390625 -16.14453125 20.390625 C-16.14453125 16.760625 -16.14453125 13.130625 -16.14453125 9.390625 C-14.89453125 6.453125 -14.89453125 6.453125 -13.14453125 4.390625 C-12.57089844 3.69839844 -11.99726563 3.00617187 -11.40625 2.29296875 C-7.80827374 -0.73330835 -4.52464595 -0.15431192 0 0 Z M-4.14453125 9.390625 C-6.35823176 11.17720257 -6.35823176 11.17720257 -6.33984375 13.5546875 C-6.31664062 14.36679688 -6.2934375 15.17890625 -6.26953125 16.015625 C-6.25148437 16.83289063 -6.2334375 17.65015625 -6.21484375 18.4921875 C-6.19164062 19.11867188 -6.1684375 19.74515625 -6.14453125 20.390625 C-3.83453125 20.390625 -1.52453125 20.390625 0.85546875 20.390625 C1.36222462 15.08052205 1.36222462 15.08052205 -0.51953125 10.390625 C-2.11041032 9.21592586 -2.11041032 9.21592586 -4.14453125 9.390625 Z M177.85546875 9.390625 C176.18905869 10.38138 176.18905869 10.38138 174.85546875 12.390625 C174.58201396 15.10908735 174.7205559 17.64739699 174.85546875 20.390625 C177.16546875 20.390625 179.47546875 20.390625 181.85546875 20.390625 C181.85546875 17.420625 181.85546875 14.450625 181.85546875 11.390625 C180.53546875 10.730625 179.21546875 10.070625 177.85546875 9.390625 Z " fill="#2F2B2C" transform="translate(40.14453125,1.609375)"/>
<path d="M0 0 C11.82360024 8.28650391 17.55724322 19.83527637 20.76731873 33.52580261 C21.29130717 36.57844912 21.35811525 39.43103514 21.35180664 42.52856445 C21.35169334 44.3899279 21.35169334 44.3899279 21.35157776 46.28889465 C21.34647197 47.63270102 21.34125599 48.97650696 21.3359375 50.3203125 C21.3340709 51.70322112 21.33264814 53.0861304 21.33164978 54.46903992 C21.32784362 58.09727831 21.31802968 61.72547625 21.3069458 65.35369873 C21.2966907 69.06066338 21.2921434 72.76763461 21.28710938 76.47460938 C21.2764056 83.73960171 21.25935215 91.0045608 21.23828125 98.26953125 C13.68016149 98.34631676 6.12214426 98.39843622 -1.4362793 98.43432617 C-4.0014217 98.44930628 -6.56653897 98.46969742 -9.1315918 98.49584961 C-34.91457403 98.75192207 -53.76808252 97.05986508 -73.67578125 79.58984375 C-84.43822496 68.48208099 -86.25516815 53.00701408 -86.0390625 38.33984375 C-85.65208114 27.97798454 -82.2095683 19.31495067 -75.76171875 11.26953125 C-75.10171875 10.43550781 -74.44171875 9.60148437 -73.76171875 8.7421875 C-68.50988785 2.5056383 -62.9609552 -1.9185135 -55.76171875 -5.73046875 C-54.96765625 -6.16488281 -54.17359375 -6.59929687 -53.35546875 -7.046875 C-36.24231007 -14.81819864 -15.17606718 -9.42664777 0 0 Z " fill="#F2618A" transform="translate(234.76171875,156.73046875)"/>
<path d="M0 0 C0.33 0 0.66 0 1 0 C1 3.96 1 7.92 1 12 C3.64 12 6.28 12 9 12 C9 8.7 9 5.4 9 2 C9.33 2 9.66 2 10 2 C10 4.97 10 7.94 10 11 C12.31 11 14.62 11 17 11 C17 8.36 17 5.72 17 3 C17.33 3 17.66 3 18 3 C17.67 11.25 17.34 19.5 17 28 C8.75 28 0.5 28 -8 28 C-8 30.97 -8 33.94 -8 37 C65.92 37 139.84 37 216 37 C216 34.03 216 31.06 216 28 C213.36 28 210.72 28 208 28 C207.33566818 18.65190221 206.8401345 9.37877608 207 0 C207.33 0 207.66 0 208 0 C208 3.63 208 7.26 208 11 C215.92 11 223.84 11 232 11 C232 24.86 232 38.72 232 53 C147.52 53 63.04 53 -24 53 C-24 39.14 -24 25.28 -24 11 C-16.08 11 -8.16 11 0 11 C0 7.37 0 3.74 0 0 Z " fill="#474545" transform="translate(24,11)"/>
<path d="M0 0 C0.33 0 0.66 0 1 0 C1 8.58 1 17.16 1 26 C-56.09 26 -113.18 26 -172 26 C-172 20.39 -172 14.78 -172 9 C-115.24 9 -58.48 9 0 9 C0 6.03 0 3.06 0 0 Z " fill="#474545" transform="translate(222,13)"/>
<path d="M0 0 C0.33 0 0.66 0 1 0 C1 15.84 1 31.68 1 48 C-14.51 48 -30.02 48 -46 48 C-46 47.67 -46 47.34 -46 47 C-45.26136719 46.85304687 -44.52273437 46.70609375 -43.76171875 46.5546875 C-31.04088382 43.74220303 -18.5844148 37.58834596 -10.703125 26.87890625 C-5.20771902 18.20458842 -1.97526832 10.03901076 0 0 Z " fill="#EFEEF3" transform="translate(255,206)"/>
<path d="M0 0 C7.92 0 15.84 0 24 0 C24 7.92 24 15.84 24 24 C16.08 24 8.16 24 0 24 C0 16.08 0 8.16 0 0 Z " fill="#7FD0ED" transform="translate(83,213)"/>
<path d="M0 0 C7.92 0 15.84 0 24 0 C24 7.92 24 15.84 24 24 C16.08 24 8.16 24 0 24 C0 16.08 0 8.16 0 0 Z " fill="#7FD0ED" transform="translate(50,213)"/>
<path d="M0 0 C7.92 0 15.84 0 24 0 C24 7.92 24 15.84 24 24 C16.08 24 8.16 24 0 24 C0 16.08 0 8.16 0 0 Z " fill="#7FD0ED" transform="translate(17,213)"/>
<path d="M0 0 C7.92 0 15.84 0 24 0 C24 7.92 24 15.84 24 24 C16.08 24 8.16 24 0 24 C0 16.08 0 8.16 0 0 Z " fill="#7FD0ED" transform="translate(116,180)"/>
<path d="M0 0 C7.92 0 15.84 0 24 0 C24 7.92 24 15.84 24 24 C16.08 24 8.16 24 0 24 C0 16.08 0 8.16 0 0 Z " fill="#7FD0ED" transform="translate(83,180)"/>
<path d="M0 0 C7.92 0 15.84 0 24 0 C24 7.92 24 15.84 24 24 C16.08 24 8.16 24 0 24 C0 16.08 0 8.16 0 0 Z " fill="#4BB3D6" transform="translate(50,180)"/>
<path d="M0 0 C7.92 0 15.84 0 24 0 C24 7.92 24 15.84 24 24 C16.08 24 8.16 24 0 24 C0 16.08 0 8.16 0 0 Z " fill="#4BB3D6" transform="translate(17,180)"/>
<path d="M0 0 C7.92 0 15.84 0 24 0 C24 7.92 24 15.84 24 24 C16.08 24 8.16 24 0 24 C0 16.08 0 8.16 0 0 Z " fill="#4BB3D6" transform="translate(116,147)"/>
<path d="M0 0 C7.92 0 15.84 0 24 0 C24 7.92 24 15.84 24 24 C16.08 24 8.16 24 0 24 C0 16.08 0 8.16 0 0 Z " fill="#F3628B" transform="translate(83,147)"/>
<path d="M0 0 C7.92 0 15.84 0 24 0 C24 7.92 24 15.84 24 24 C16.08 24 8.16 24 0 24 C0 16.08 0 8.16 0 0 Z " fill="#F3628B" transform="translate(50,147)"/>
<path d="M0 0 C7.92 0 15.84 0 24 0 C24 7.92 24 15.84 24 24 C16.08 24 8.16 24 0 24 C0 16.08 0 8.16 0 0 Z " fill="#F3628B" transform="translate(17,147)"/>
<path d="M0 0 C7.92 0 15.84 0 24 0 C24 7.92 24 15.84 24 24 C16.08 24 8.16 24 0 24 C0 16.08 0 8.16 0 0 Z " fill="#4CB3D6" transform="translate(215,114)"/>
<path d="M0 0 C7.92 0 15.84 0 24 0 C24 7.92 24 15.84 24 24 C16.08 24 8.16 24 0 24 C0 16.08 0 8.16 0 0 Z " fill="#4CB3D6" transform="translate(182,114)"/>
<path d="M0 0 C7.92 0 15.84 0 24 0 C24 7.92 24 15.84 24 24 C16.08 24 8.16 24 0 24 C0 16.08 0 8.16 0 0 Z " fill="#4CB3D6" transform="translate(149,114)"/>
<path d="M0 0 C7.92 0 15.84 0 24 0 C24 7.92 24 15.84 24 24 C16.08 24 8.16 24 0 24 C0 16.08 0 8.16 0 0 Z " fill="#4AB2D6" transform="translate(116,114)"/>
<path d="M0 0 C7.92 0 15.84 0 24 0 C24 7.92 24 15.84 24 24 C16.08 24 8.16 24 0 24 C0 16.08 0 8.16 0 0 Z " fill="#4CB3D6" transform="translate(83,114)"/>
<path d="M0 0 C7.92 0 15.84 0 24 0 C24 7.92 24 15.84 24 24 C16.08 24 8.16 24 0 24 C0 16.08 0 8.16 0 0 Z " fill="#F3628C" transform="translate(50,114)"/>
<path d="M0 0 C7.92 0 15.84 0 24 0 C24 7.92 24 15.84 24 24 C16.08 24 8.16 24 0 24 C0 16.08 0 8.16 0 0 Z " fill="#F3628C" transform="translate(17,114)"/>
<path d="M0 0 C7.92 0 15.84 0 24 0 C24 7.92 24 15.84 24 24 C16.08 24 8.16 24 0 24 C0 16.08 0 8.16 0 0 Z " fill="#4CB3D6" transform="translate(215,81)"/>
<path d="M0 0 C7.92 0 15.84 0 24 0 C24 7.92 24 15.84 24 24 C16.08 24 8.16 24 0 24 C0 16.08 0 8.16 0 0 Z " fill="#4CB3D6" transform="translate(182,81)"/>
<path d="M0 0 C7.92 0 15.84 0 24 0 C24 7.92 24 15.84 24 24 C16.08 24 8.16 24 0 24 C0 16.08 0 8.16 0 0 Z " fill="#4AB2D6" transform="translate(149,81)"/>
<path d="M0 0 C7.92 0 15.84 0 24 0 C24 7.92 24 15.84 24 24 C16.08 24 8.16 24 0 24 C0 16.08 0 8.16 0 0 Z " fill="#4AB2D6" transform="translate(116,81)"/>
<path d="M0 0 C2.88437779 1.29299694 4.87219421 2.65941363 7 5 C5.72669411 7.77960675 4.40171491 9.85743296 2.26611328 12.0402832 C1.71859406 12.60378983 1.17107483 13.16729645 0.60696411 13.74787903 C0.01736908 14.34283676 -0.57222595 14.93779449 -1.1796875 15.55078125 C-1.78886017 16.16898239 -2.39803284 16.78718353 -3.02566528 17.42411804 C-4.31238672 18.72531842 -5.60191363 20.02374974 -6.89404297 21.31958008 C-8.87327926 23.31076886 -10.83309886 25.31984808 -12.79296875 27.33007812 C-14.04572296 28.59229029 -15.2995919 29.85339726 -16.5546875 31.11328125 C-17.14023407 31.71836014 -17.72578064 32.32343903 -18.32907104 32.94685364 C-20.00732422 34.60668945 -20.00732422 34.60668945 -23 37 C-26.78597033 36.54852448 -28.48163633 34.87105376 -31.109375 32.18359375 C-31.86347656 31.41982422 -32.61757812 30.65605469 -33.39453125 29.86914062 C-34.17183594 29.06669922 -34.94914063 28.26425781 -35.75 27.4375 C-36.54277344 26.63119141 -37.33554688 25.82488281 -38.15234375 24.99414062 C-40.10847046 23.00266222 -42.05725719 21.00452279 -44 19 C-41.22851562 14.14404297 -41.22851562 14.14404297 -39.171875 12.84765625 C-35.52385884 13.10354228 -33.59945467 15.88763253 -31.25 18.4375 C-30.49009766 19.23124023 -30.49009766 19.23124023 -29.71484375 20.04101562 C-28.46504131 21.34977101 -27.23097382 22.67351959 -26 24 C-21.36404157 22.57875727 -18.53067776 19.92216252 -15.25 16.5 C-14.75628906 16.00113281 -14.26257813 15.50226563 -13.75390625 14.98828125 C-11.04400803 12.24215717 -11.04400803 12.24215717 -9 9 C-8.34 9 -7.68 9 -7 9 C-6.773125 8.443125 -6.54625 7.88625 -6.3125 7.3125 C-4.64103234 4.36753316 -2.44723648 2.31843456 0 0 Z " fill="#FDF5F8" transform="translate(223,185)"/>
<path d="M0 0 C2.64 0 5.28 0 8 0 C8 2.64 8 5.28 8 8 C5.36 8 2.72 8 0 8 C0 5.36 0 2.72 0 0 Z " fill="#474545" transform="translate(124,221)"/>
<path d="M0 0 C2.64 0 5.28 0 8 0 C8 2.64 8 5.28 8 8 C5.36 8 2.72 8 0 8 C0 5.36 0 2.72 0 0 Z " fill="#474545" transform="translate(91,89)"/>
<path d="M0 0 C2.64 0 5.28 0 8 0 C8 2.64 8 5.28 8 8 C5.36 8 2.72 8 0 8 C0 5.36 0 2.72 0 0 Z " fill="#474545" transform="translate(58,89)"/>
<path d="M0 0 C2.64 0 5.28 0 8 0 C8 2.64 8 5.28 8 8 C5.36 8 2.72 8 0 8 C0 5.36 0 2.72 0 0 Z " fill="#504F4F" transform="translate(25,89)"/>
</svg>
